<svg width="99" height="40" viewBox="0 0 99 40" fill="none" xmlns="http://www.w3.org/2000/svg">
<path d="M0 4C0 1.79086 1.79086 0 4 0H95C97.2091 0 99 1.79086 99 4V36C99 38.2091 97.2091 40 95 40H4C1.79086 40 0 38.2091 0 36V4Z" fill="#FAFAFC"/>
<path d="M4 1H95V-1H4V1ZM98 4V36H100V4H98ZM95 39H4V41H95V39ZM1 36V4H-1V36H1ZM4 39C2.34314 39 1 37.6569 1 36H-1C-1 38.7614 1.23857 41 4 41V39ZM98 36C98 37.6569 96.6569 39 95 39V41C97.7614 41 100 38.7614 100 36H98ZM95 1C96.6569 1 98 2.34315 98 4H100C100 1.23858 97.7614 -1 95 -1V1ZM4 -1C1.23858 -1 -1 1.23858 -1 4H1C1 2.34315 2.34315 1 4 1V-1Z" fill="#121232"/>
</svg>

